<svg width="30" height="30" viewBox="0 0 30 30" fill="none" xmlns="http://www.w3.org/2000/svg">
<path fill-rule="evenodd" clip-rule="evenodd" d="M8.9535 0.421343C10.5175 0.349343 11.0162 0.333344 15.0002 0.333344C18.9842 0.333344 19.4828 0.350677 21.0455 0.421343C22.6082 0.49201 23.6748 0.741344 24.6082 1.10268C25.5855 1.47201 26.4722 2.04934 27.2055 2.79601C27.9522 3.52801 28.5282 4.41334 28.8962 5.39201C29.2588 6.32534 29.5068 7.39201 29.5788 8.95201C29.6508 10.5187 29.6668 11.0173 29.6668 15C29.6668 18.984 29.6495 19.4827 29.5788 21.0467C29.5082 22.6067 29.2588 23.6733 28.8962 24.6067C28.5282 25.5855 27.9512 26.4723 27.2055 27.2053C26.4722 27.952 25.5855 28.528 24.6082 28.896C23.6748 29.2587 22.6082 29.5067 21.0482 29.5787C19.4828 29.6507 18.9842 29.6667 15.0002 29.6667C11.0162 29.6667 10.5175 29.6493 8.9535 29.5787C7.3935 29.508 6.32683 29.2587 5.3935 28.896C4.41472 28.528 3.52792 27.951 2.79483 27.2053C2.04867 26.4729 1.47125 25.5865 1.10283 24.608C0.741496 23.6747 0.493496 22.608 0.421496 21.048C0.349496 19.4813 0.333496 18.9827 0.333496 15C0.333496 11.016 0.350829 10.5173 0.421496 8.95468C0.492163 7.39201 0.741496 6.32534 1.10283 5.39201C1.47179 4.41345 2.04965 3.52709 2.79616 2.79468C3.52822 2.04868 4.41413 1.47127 5.39216 1.10268C6.3255 0.741344 7.39216 0.493343 8.95216 0.421343H8.9535ZM20.9268 3.06134C19.3802 2.99068 18.9162 2.97601 15.0002 2.97601C11.0842 2.97601 10.6202 2.99068 9.0735 3.06134C7.64283 3.12668 6.86683 3.36534 6.3495 3.56668C5.6655 3.83334 5.17616 4.14934 4.66283 4.66268C4.17622 5.13608 3.80174 5.71239 3.56683 6.34934C3.3655 6.86668 3.12683 7.64268 3.0615 9.07334C2.99083 10.62 2.97616 11.084 2.97616 15C2.97616 18.916 2.99083 19.38 3.0615 20.9267C3.12683 22.3573 3.3655 23.1333 3.56683 23.6507C3.8015 24.2867 4.17616 24.864 4.66283 25.3373C5.13616 25.824 5.7135 26.1987 6.3495 26.4333C6.86683 26.6347 7.64283 26.8733 9.0735 26.9387C10.6202 27.0093 11.0828 27.024 15.0002 27.024C18.9175 27.024 19.3802 27.0093 20.9268 26.9387C22.3575 26.8733 23.1335 26.6347 23.6508 26.4333C24.3348 26.1667 24.8242 25.8507 25.3375 25.3373C25.8242 24.864 26.1988 24.2867 26.4335 23.6507C26.6348 23.1333 26.8735 22.3573 26.9388 20.9267C27.0095 19.38 27.0242 18.916 27.0242 15C27.0242 11.084 27.0095 10.62 26.9388 9.07334C26.8735 7.64268 26.6348 6.86668 26.4335 6.34934C26.1668 5.66534 25.8508 5.17601 25.3375 4.66268C24.8641 4.17611 24.2878 3.80162 23.6508 3.56668C23.1335 3.36534 22.3575 3.12668 20.9268 3.06134V3.06134ZM13.1268 19.5213C14.173 19.9569 15.338 20.0156 16.4227 19.6876C17.5075 19.3596 18.4447 18.6652 19.0743 17.723C19.7039 16.7808 19.9869 15.6492 19.8749 14.5215C19.7629 13.3938 19.2628 12.34 18.4602 11.54C17.9485 11.0286 17.3298 10.6371 16.6486 10.3935C15.9674 10.15 15.2407 10.0605 14.5208 10.1315C13.8009 10.2025 13.1057 10.4322 12.4852 10.8042C11.8648 11.1761 11.3345 11.681 10.9326 12.2825C10.5306 12.884 10.2671 13.5671 10.1608 14.2826C10.0546 14.9982 10.1084 15.7284 10.3182 16.4207C10.5281 17.113 10.8888 17.7502 11.3745 18.2863C11.8601 18.8225 12.4586 19.2443 13.1268 19.5213ZM9.6695 9.66934C10.3695 8.96931 11.2006 8.41401 12.1152 8.03516C13.0299 7.6563 14.0102 7.46131 15.0002 7.46131C15.9902 7.46131 16.9705 7.6563 17.8851 8.03516C18.7997 8.41401 19.6308 8.96931 20.3308 9.66934C21.0309 10.3694 21.5862 11.2004 21.965 12.1151C22.3439 13.0297 22.5389 14.01 22.5389 15C22.5389 15.99 22.3439 16.9703 21.965 17.8849C21.5862 18.7996 21.0309 19.6306 20.3308 20.3307C18.917 21.7445 16.9995 22.5387 15.0002 22.5387C13.0008 22.5387 11.0833 21.7445 9.6695 20.3307C8.25571 18.9169 7.46146 16.9994 7.46146 15C7.46146 13.0006 8.25571 11.0831 9.6695 9.66934V9.66934ZM24.2108 8.58401C24.3843 8.42037 24.5232 8.22358 24.6192 8.00531C24.7153 7.78703 24.7666 7.5517 24.7701 7.31325C24.7735 7.0748 24.7291 6.83807 24.6395 6.61709C24.5498 6.39611 24.4167 6.19536 24.2481 6.02673C24.0795 5.8581 23.8787 5.72502 23.6577 5.63537C23.4368 5.54571 23.2 5.50131 22.9616 5.50479C22.7231 5.50826 22.4878 5.55955 22.2695 5.6556C22.0513 5.75166 21.8545 5.89054 21.6908 6.06401C21.3726 6.40138 21.1983 6.8495 21.2051 7.31325C21.2119 7.77699 21.3991 8.21985 21.727 8.5478C22.055 8.87575 22.4978 9.06298 22.9616 9.06974C23.4253 9.0765 23.8735 8.90226 24.2108 8.58401V8.58401Z" fill="black"/>
</svg>
